<svg width="82" height="12" viewBox="0 0 82 12" fill="none" xmlns="http://www.w3.org/2000/svg">
<path d="M3.564 9.144C3.292 9.144 3.008 9.08 2.712 8.952C2.424 8.816 2.152 8.632 1.896 8.4H1.86L1.776 9H0.984V0.456H1.968V2.784L1.944 3.84C2.208 3.608 2.496 3.416 2.808 3.264C3.12 3.104 3.44 3.024 3.768 3.024C4.144 3.024 4.476 3.096 4.764 3.24C5.052 3.376 5.292 3.576 5.484 3.84C5.684 4.096 5.832 4.408 5.928 4.776C6.032 5.136 6.084 5.54 6.084 5.988C6.084 6.484 6.016 6.928 5.88 7.32C5.744 7.712 5.56 8.044 5.328 8.316C5.096 8.588 4.828 8.796 4.524 8.94C4.22 9.076 3.9 9.144 3.564 9.144ZM3.396 8.316C3.636 8.316 3.856 8.264 4.056 8.16C4.264 8.048 4.44 7.896 4.584 7.704C4.736 7.504 4.852 7.26 4.932 6.972C5.02 6.684 5.064 6.36 5.064 6C5.064 5.68 5.036 5.388 4.98 5.124C4.924 4.86 4.832 4.636 4.704 4.452C4.584 4.26 4.424 4.112 4.224 4.008C4.032 3.904 3.8 3.852 3.528 3.852C3.056 3.852 2.536 4.116 1.968 4.644V7.704C2.224 7.928 2.476 8.088 2.724 8.184C2.98 8.272 3.204 8.316 3.396 8.316ZM7.66594 11.508C7.52994 11.508 7.40594 11.496 7.29394 11.472C7.18194 11.456 7.07794 11.428 6.98194 11.388L7.17394 10.608C7.23794 10.624 7.30994 10.64 7.38994 10.656C7.46994 10.68 7.54594 10.692 7.61794 10.692C7.95394 10.692 8.22594 10.572 8.43394 10.332C8.64994 10.1 8.81794 9.804 8.93794 9.444L9.06994 9.012L6.72994 3.168H7.74994L8.93794 6.396C9.02594 6.652 9.11794 6.924 9.21394 7.212C9.31794 7.492 9.41394 7.768 9.50194 8.04H9.54994C9.63794 7.776 9.72194 7.5 9.80194 7.212C9.88194 6.924 9.96194 6.652 10.0419 6.396L11.0859 3.168H12.0459L9.84994 9.48C9.74594 9.768 9.62994 10.036 9.50194 10.284C9.37394 10.532 9.22194 10.744 9.04594 10.92C8.86994 11.104 8.66994 11.248 8.44594 11.352C8.22194 11.456 7.96194 11.508 7.66594 11.508ZM18.7658 9.144C18.2458 9.144 17.7658 9.052 17.3258 8.868C16.8938 8.684 16.5218 8.42 16.2098 8.076C15.8978 7.724 15.6538 7.296 15.4778 6.792C15.3018 6.28 15.2138 5.704 15.2138 5.064C15.2138 4.432 15.3018 3.864 15.4778 3.36C15.6618 2.856 15.9138 2.428 16.2338 2.076C16.5538 1.724 16.9338 1.456 17.3738 1.272C17.8218 1.08 18.3058 0.983999 18.8258 0.983999C19.0978 0.983999 19.3458 1.012 19.5698 1.068C19.8018 1.124 20.0098 1.2 20.1938 1.296C20.3858 1.384 20.5538 1.488 20.6978 1.608C20.8498 1.72 20.9818 1.836 21.0938 1.956L20.5418 2.604C20.3418 2.396 20.1098 2.22 19.8458 2.076C19.5818 1.932 19.2498 1.86 18.8498 1.86C18.4498 1.86 18.0898 1.936 17.7698 2.088C17.4498 2.232 17.1778 2.444 16.9538 2.724C16.7298 2.996 16.5538 3.328 16.4258 3.72C16.3058 4.112 16.2458 4.552 16.2458 5.04C16.2458 5.536 16.3018 5.984 16.4138 6.384C16.5338 6.776 16.7018 7.112 16.9178 7.392C17.1418 7.672 17.4138 7.888 17.7338 8.04C18.0618 8.192 18.4378 8.268 18.8618 8.268C19.1418 8.268 19.4058 8.228 19.6538 8.148C19.9098 8.06 20.1178 7.944 20.2778 7.8V5.748H18.6098V4.92H21.1898V8.232C20.9338 8.496 20.5978 8.716 20.1818 8.892C19.7658 9.06 19.2938 9.144 18.7658 9.144ZM22.9801 9V3.168H23.7961L23.8801 4.224H23.9161C24.1161 3.856 24.3561 3.564 24.6361 3.348C24.9241 3.132 25.2361 3.024 25.5721 3.024C25.8041 3.024 26.0121 3.064 26.1961 3.144L26.0041 4.008C25.9081 3.976 25.8201 3.952 25.7401 3.936C25.6601 3.92 25.5601 3.912 25.4401 3.912C25.1921 3.912 24.9321 4.012 24.6601 4.212C24.3961 4.412 24.1641 4.76 23.9641 5.256V9H22.9801ZM27.1403 9V3.168H28.1243V9H27.1403ZM27.6443 1.968C27.4523 1.968 27.2883 1.908 27.1523 1.788C27.0243 1.668 26.9603 1.516 26.9603 1.332C26.9603 1.14 27.0243 0.987999 27.1523 0.875999C27.2883 0.756 27.4523 0.696 27.6443 0.696C27.8363 0.696 27.9963 0.756 28.1243 0.875999C28.2603 0.987999 28.3283 1.14 28.3283 1.332C28.3283 1.516 28.2603 1.668 28.1243 1.788C27.9963 1.908 27.8363 1.968 27.6443 1.968ZM32.0854 9.144C31.3494 9.144 30.7614 8.88 30.3214 8.352C29.8894 7.824 29.6734 7.072 29.6734 6.096C29.6734 5.624 29.7414 5.2 29.8774 4.824C30.0214 4.44 30.2094 4.116 30.4414 3.852C30.6734 3.588 30.9414 3.384 31.2454 3.24C31.5494 3.096 31.8694 3.024 32.2054 3.024C32.5414 3.024 32.8334 3.084 33.0814 3.204C33.3294 3.324 33.5814 3.488 33.8374 3.696L33.7894 2.7V0.456H34.7854V9H33.9694L33.8854 8.316H33.8494C33.6174 8.54 33.3494 8.736 33.0454 8.904C32.7494 9.064 32.4294 9.144 32.0854 9.144ZM32.3014 8.316C32.5734 8.316 32.8294 8.252 33.0694 8.124C33.3094 7.988 33.5494 7.784 33.7894 7.512V4.464C33.5414 4.24 33.3014 4.084 33.0694 3.996C32.8454 3.9 32.6134 3.852 32.3734 3.852C32.1414 3.852 31.9214 3.908 31.7134 4.02C31.5134 4.124 31.3374 4.276 31.1854 4.476C31.0334 4.668 30.9134 4.9 30.8254 5.172C30.7374 5.444 30.6934 5.748 30.6934 6.084C30.6934 6.788 30.8334 7.336 31.1134 7.728C31.3934 8.12 31.7894 8.316 32.3014 8.316ZM39.248 9V1.128H41.216C42.432 1.128 43.356 1.464 43.988 2.136C44.62 2.808 44.936 3.772 44.936 5.028C44.936 5.652 44.856 6.212 44.696 6.708C44.536 7.196 44.3 7.612 43.988 7.956C43.676 8.292 43.292 8.552 42.836 8.736C42.38 8.912 41.856 9 41.264 9H39.248ZM40.244 8.184H41.144C42.064 8.184 42.752 7.908 43.208 7.356C43.672 6.804 43.904 6.028 43.904 5.028C43.904 4.028 43.672 3.264 43.208 2.736C42.752 2.208 42.064 1.944 41.144 1.944H40.244V8.184ZM46.6308 11.508C46.4948 11.508 46.3708 11.496 46.2588 11.472C46.1468 11.456 46.0428 11.428 45.9468 11.388L46.1388 10.608C46.2028 10.624 46.2748 10.64 46.3548 10.656C46.4348 10.68 46.5108 10.692 46.5828 10.692C46.9188 10.692 47.1908 10.572 47.3988 10.332C47.6148 10.1 47.7828 9.804 47.9028 9.444L48.0348 9.012L45.6948 3.168H46.7148L47.9028 6.396C47.9908 6.652 48.0828 6.924 48.1788 7.212C48.2828 7.492 48.3788 7.768 48.4668 8.04H48.5148C48.6028 7.776 48.6868 7.5 48.7668 7.212C48.8468 6.924 48.9268 6.652 49.0068 6.396L50.0508 3.168H51.0108L48.8148 9.48C48.7108 9.768 48.5948 10.036 48.4668 10.284C48.3388 10.532 48.1868 10.744 48.0108 10.92C47.8348 11.104 47.6348 11.248 47.4108 11.352C47.1868 11.456 46.9268 11.508 46.6308 11.508ZM52.1363 9V3.168H52.9523L53.0363 4.008H53.0723C53.3523 3.728 53.6443 3.496 53.9483 3.312C54.2603 3.12 54.6203 3.024 55.0283 3.024C55.6443 3.024 56.0923 3.216 56.3723 3.6C56.6603 3.984 56.8043 4.552 56.8043 5.304V9H55.8203V5.436C55.8203 4.884 55.7323 4.488 55.5563 4.248C55.3803 4 55.1003 3.876 54.7163 3.876C54.4123 3.876 54.1443 3.952 53.9123 4.104C53.6803 4.256 53.4163 4.48 53.1203 4.776V9H52.1363ZM60.0428 9.144C59.5548 9.144 59.1468 9 58.8188 8.712C58.4988 8.424 58.3388 8.016 58.3388 7.488C58.3388 6.848 58.6228 6.36 59.1908 6.024C59.7588 5.68 60.6668 5.44 61.9148 5.304C61.9148 5.12 61.8948 4.94 61.8548 4.764C61.8228 4.588 61.7628 4.432 61.6748 4.296C61.5868 4.16 61.4628 4.052 61.3028 3.972C61.1508 3.884 60.9548 3.84 60.7148 3.84C60.3788 3.84 60.0628 3.904 59.7668 4.032C59.4708 4.16 59.2068 4.304 58.9748 4.464L58.5908 3.78C58.8628 3.604 59.1948 3.436 59.5868 3.276C59.9788 3.108 60.4108 3.024 60.8828 3.024C61.5948 3.024 62.1108 3.244 62.4308 3.684C62.7508 4.116 62.9108 4.696 62.9108 5.424V9H62.0948L62.0108 8.304H61.9748C61.6948 8.536 61.3948 8.736 61.0748 8.904C60.7548 9.064 60.4108 9.144 60.0428 9.144ZM60.3308 8.352C60.6108 8.352 60.8748 8.288 61.1228 8.16C61.3708 8.024 61.6348 7.828 61.9148 7.572V5.952C61.4268 6.016 61.0148 6.092 60.6788 6.18C60.3508 6.268 60.0828 6.372 59.8748 6.492C59.6748 6.612 59.5268 6.752 59.4308 6.912C59.3428 7.064 59.2988 7.232 59.2988 7.416C59.2988 7.752 59.3988 7.992 59.5988 8.136C59.7988 8.28 60.0428 8.352 60.3308 8.352ZM64.7457 9V3.168H65.5617L65.6457 4.008H65.6817C65.9377 3.728 66.2137 3.496 66.5097 3.312C66.8137 3.12 67.1417 3.024 67.4937 3.024C67.9417 3.024 68.2897 3.124 68.5377 3.324C68.7937 3.516 68.9817 3.788 69.1017 4.14C69.4057 3.804 69.7097 3.536 70.0137 3.336C70.3257 3.128 70.6617 3.024 71.0217 3.024C71.6217 3.024 72.0657 3.216 72.3537 3.6C72.6497 3.984 72.7977 4.552 72.7977 5.304V9H71.8137V5.436C71.8137 4.884 71.7257 4.488 71.5497 4.248C71.3737 4 71.1017 3.876 70.7337 3.876C70.2937 3.876 69.8057 4.176 69.2697 4.776V9H68.2857V5.436C68.2857 4.884 68.1977 4.488 68.0217 4.248C67.8457 4 67.5697 3.876 67.1937 3.876C66.7537 3.876 66.2657 4.176 65.7297 4.776V9H64.7457ZM74.6949 9V3.168H75.6789V9H74.6949ZM75.1989 1.968C75.0069 1.968 74.8429 1.908 74.7069 1.788C74.5789 1.668 74.5149 1.516 74.5149 1.332C74.5149 1.14 74.5789 0.987999 74.7069 0.875999C74.8429 0.756 75.0069 0.696 75.1989 0.696C75.3909 0.696 75.5509 0.756 75.6789 0.875999C75.8149 0.987999 75.8829 1.14 75.8829 1.332C75.8829 1.516 75.8149 1.668 75.6789 1.788C75.5509 1.908 75.3909 1.968 75.1989 1.968ZM79.9521 9.144C79.5681 9.144 79.2081 9.076 78.8721 8.94C78.5361 8.804 78.2441 8.608 77.9961 8.352C77.7561 8.088 77.5641 7.768 77.4201 7.392C77.2841 7.008 77.2161 6.576 77.2161 6.096C77.2161 5.608 77.2921 5.176 77.4441 4.8C77.5961 4.416 77.8001 4.092 78.0561 3.828C78.3121 3.564 78.6081 3.364 78.9441 3.228C79.2881 3.092 79.6481 3.024 80.0241 3.024C80.4081 3.024 80.7361 3.092 81.0081 3.228C81.2801 3.364 81.5201 3.524 81.7281 3.708L81.2241 4.356C81.0561 4.204 80.8761 4.08 80.6841 3.984C80.5001 3.888 80.2921 3.84 80.0601 3.84C79.7961 3.84 79.5521 3.896 79.3281 4.008C79.1041 4.112 78.9121 4.264 78.7521 4.464C78.5921 4.664 78.4641 4.904 78.3681 5.184C78.2801 5.456 78.2361 5.76 78.2361 6.096C78.2361 6.432 78.2801 6.736 78.3681 7.008C78.4561 7.28 78.5761 7.516 78.7281 7.716C78.8881 7.908 79.0801 8.06 79.3041 8.172C79.5281 8.276 79.7721 8.328 80.0361 8.328C80.3081 8.328 80.5561 8.272 80.7801 8.16C81.0121 8.04 81.2201 7.9 81.4041 7.74L81.8361 8.4C81.5721 8.632 81.2801 8.816 80.9601 8.952C80.6401 9.08 80.3041 9.144 79.9521 9.144Z" fill="#545454"/>
</svg>
