<svg width="40" height="43" viewBox="0 0 40 43" fill="none" xmlns="http://www.w3.org/2000/svg">
<g filter="url(#filter0_d_1_13704)">
<rect width="40" height="40" rx="2" fill="#7A1EFF"/>
</g>
<path fill-rule="evenodd" clip-rule="evenodd" d="M9 21H11.0549C11.5161 25.1716 14.8284 28.4839 19 28.9451V31H21V28.9451C25.1716 28.4839 28.4839 25.1716 28.9451 21H31V19H28.9451C28.4839 14.8284 25.1716 11.5161 21 11.0549V9H19V11.0549C14.8284 11.5161 11.5161 14.8284 11.0549 19H9V21ZM13 20C13 16.134 16.134 13 20 13C23.866 13 27 16.134 27 20C27 23.866 23.866 27 20 27C16.134 27 13 23.866 13 20ZM20 16C22.2091 16 24 17.7909 24 20C24 22.2091 22.2091 24 20 24C17.7909 24 16 22.2091 16 20C16 17.7909 17.7909 16 20 16ZM18 20C18 18.8954 18.8954 18 20 18C21.1046 18 22 18.8954 22 20C22 21.1046 21.1046 22 20 22C18.8954 22 18 21.1046 18 20Z" fill="white"/>
<defs>
<filter id="filter0_d_1_13704" x="0" y="0" width="40" height="43" filterUnits="userSpaceOnUse" color-interpolation-filters="sRGB">
<feFlood flood-opacity="0" result="BackgroundImageFix"/>
<feColorMatrix in="SourceAlpha" type="matrix" values="0 0 0 0 0 0 0 0 0 0 0 0 0 0 0 0 0 0 127 0" result="hardAlpha"/>
<feOffset dy="3"/>
<feColorMatrix type="matrix" values="0 0 0 0 0 0 0 0 0 0 0 0 0 0 0 0 0 0 0.15 0"/>
<feBlend mode="normal" in2="BackgroundImageFix" result="effect1_dropShadow_1_13704"/>
<feBlend mode="normal" in="SourceGraphic" in2="effect1_dropShadow_1_13704" result="shape"/>
</filter>
</defs>
</svg>
